/* XPM */
static char *result[] = {
/* columns rows colors chars-per-pixel */
"49 38 11 1 ",
"  c #211F30",
". c #11596E",
"X c #30B173",
"o c #7A2996",
"O c #BA3FAF",
"+ c #EA71BD",
"@ c #1C8C82",
"# c #64D88C",
"$ c #F89CC0",
"% c #FBCDD6",
"& c None",
/* pixels */
"&&&&&&&&&&&&&&&&&&&&&&&&&&&&&&&&&&&&&&&&&&&&&&&&&",
"&&&&&&&&&&&&&&&&&&&&&&&&&&&&&&&&&&&&&&&&&&&&&&&&&",
"&&&&&&&&&&&&&&&&&&&&&&&&&&&&&&&&&&&&&&&&&&&&&&&&&",
"&&&&&&&&&&&&&&&&&&&&&&&&&&&&&&&&&&&&&&&&&&&&&&&&&",
"&&&&&&&&&&&&&&&&&&&&&&&&&&&&&&&&&&&&&&&&&&&&&&&&&",
"&&&&&&&&&&&&&&&&&&&&&&&&&&&&&&&&&&&&&&&&&&&&&&&&&",
"&&&&&&&&&&&&&&&&&&&&&&&&&      &&&&&&&&&&&&&&&&&&",
"&&&&&&&&&&&&&&&&&&&&&&&  %%%$$$ &&&&&&&&&&&&&&&&&",
"&&&&&&&&&&&&&&&&&&&&&  %%$$$$$$ &&&&&&&&&&&&&&&&&",
"&&&&&&&&&&&&&&&&&&&& %%$$$$$$$$+ &&&&&&&&&&&&&&&&",
"&&&&&&&&&&&&&&&&&&& %$$$$    +++ &&&&&&&&&&&&&&&&",
"&&&&&&&&&&&&&&&    $$$$$ ####  ++ &&&&&&&&&&&&&&&",
"&&&&&&&&&&&&&& XX $$$$+ #XXXXXX + &&&&&&&&&&&&&&&",
"&&&&&&&&&&&&& XX $$$$+ #....XXX@  &&&&&&&&&&&&&&&",
"&&&&&&&&&&&& X@ +$$$+ X.XXXX.XXX@ &&&&&&&&&&&&&&&",
"&&&&&&&&&&&& @ +$$$+ X.XXXXXX.XXX@ &&&&&&&&&&&&&&",
"&&&&&&&&&&&& . +$$+ #.XXXXXXXX.XX@ &&&&&&&&&&&&&&",
"&&&&&&&&&&&&& +$$$+ #.XXXXXXXX.XX@ &&&&&&&&&&&&&&",
"&&&&&&&&&&&&& +$$+ #X.@XXXXXX@.XX@ &&&&&&&&&&&&&&",
"&&&&&&&&&&&& +++++ #X@.@@@@@@.@XX@ &&&&&&&&&&&&&&",
"&&&&&&&&&&&& OOOOOO XX@......@XXX@ &&&    &&&&&&&",
"&&&&&&&&&&& %%%$%$$$ XX@....@XXX@ &&& %%$$ &&&&&&",
"&&&&&&&&&&& ooooooo+$ XX@@@@XXXX@ && %+  +% &&&&&",
"&&&&&&&&&&& +++++++o+ XXXXXXXXX@ &&& + && $ &&&&&",
"&&&&&&&&&&&        ++ XXXXXX@@@.@ && ++ & $ &&&&&",
"&&&&&&&&&&&&  @@@@@  @XX@@@@...@X@ &&  && $ &&&&&",
"&&&&&&&&&&&&&& @@@@@@@@@....@@@XXX &&&&& +$ &&&&&",
"&&&&&&&&&&&&&&&         @@@@XXXXXX &&&  %$$ &&&&&",
"&&&&&&&&&&&&&&&&& @ @@@@XXXXX.XXX@    %%$$ &&&&&&",
"&&&&&&&&&&&&&&&& @@ XXXXXXXX.XXX@  +$$$$$+ &&&&&&",
"&&&&&&&&&&&&&&&& @@ X##X#XXX @@@ @ +$$$++ &&&&&&&",
"&&&&&&&&&&&&&&&&&   X##XXXXX@   @@ +$++  &&&&&&&&",
"&&&&&&&&&&&&&&&&&&&& XXXXXXXX@@@@ +++  &&&&&&&&&&",
"&&&&&&&&&&&&&&&&&&&& XXXXXXXXXXX@    &&&&&&&&&&&&",
"&&&&&&&&&&&&&&&&&&&&& X@@@@@@@X@ &&&&&&&&&&&&&&&&",
"&&&&&&&&&&&&&&&&&&&&& X       X@ &&&&&&&&&&&&&&&&",
"&&&&&&&&&&&&&&&&&&&&& @@ &&&& @@ &&&&&&&&&&&&&&&&",
"&&&&&&&&&&&&&&&&&&&&&&  &&&&&&  &&&&&&&&&&&&&&&&&"
};
